<svg aria-hidden="true" style="position:absolute;width:0;height:0;overflow:hidden" xmlns="http://www.w3.org/2000/svg">
  <defs>
    <symbol id="icon-Check" viewBox="0 0 40 32">
      <path d="M33.843 1.958c.657-.578 1.532-.897 2.44-.891s1.777.338 2.425.925c.648.587 1.023 1.383 1.047 2.221s-.305 1.651-.919 2.269l-18.62 21.495c-.32.318-.707.574-1.136.751s-.893.273-1.364.281c-.47.008-.938-.072-1.374-.234s-.833-.405-1.166-.712L2.828 16.665c-.344-.296-.62-.652-.811-1.049s-.294-.824-.302-1.258c-.008-.434.078-.865.254-1.267s.438-.768.77-1.075.728-.549 1.164-.711a3.786 3.786 0 0 1 2.736.044c.429.177.816.431 1.136.749l9.772 9.016L33.754 2.052a1.19 1.19 0 0 1 .093-.095h-.005z"/>
    </symbol>
  </defs>
</svg>
